<mxfile host="app.diagrams.net" modified="2021-09-22T19:51:40.841Z" agent="5.0 (Macintosh)" etag="gAx0p7PpMKo9IAjw_b5H" version="15.2.9" type="github">
  <diagram id="9ruZ7lIHfwIDMkIMnSRF" name="Page-1">
    <mxGraphModel dx="1577" dy="877" grid="1" gridSize="10" guides="1" tooltips="1" connect="1" arrows="1" fold="1" page="1" pageScale="1" pageWidth="850" pageHeight="1100" math="0" shadow="0">
      <root>
        <mxCell id="0" />
        <mxCell id="1" parent="0" />
        <mxCell id="1oKYoXXWQTvSqcj3fdGV-1" value="BDSA" style="swimlane;childLayout=stackLayout;resizeParent=1;resizeParentMax=0;horizontal=0;startSize=20;horizontalStack=0;" parent="1" vertex="1">
          <mxGeometry x="80" y="120" width="660" height="240" as="geometry" />
        </mxCell>
        <mxCell id="1oKYoXXWQTvSqcj3fdGV-25" value="" style="endArrow=openThin;html=1;endFill=0;exitX=0.5;exitY=1;exitDx=0;exitDy=0;entryX=0.5;entryY=0;entryDx=0;entryDy=0;" parent="1oKYoXXWQTvSqcj3fdGV-1" source="1oKYoXXWQTvSqcj3fdGV-7" target="1oKYoXXWQTvSqcj3fdGV-12" edge="1">
          <mxGeometry width="50" height="50" relative="1" as="geometry">
            <mxPoint x="173" y="104" as="sourcePoint" />
            <mxPoint x="173" y="154" as="targetPoint" />
          </mxGeometry>
        </mxCell>
        <mxCell id="dUb_gdJ29Vl77e2lRFBZ-6" value="" style="endArrow=openThin;html=1;endFill=0;exitX=0.5;exitY=1;exitDx=0;exitDy=0;entryX=0.5;entryY=0;entryDx=0;entryDy=0;" edge="1" parent="1oKYoXXWQTvSqcj3fdGV-1" source="dUb_gdJ29Vl77e2lRFBZ-5" target="dUb_gdJ29Vl77e2lRFBZ-7">
          <mxGeometry width="50" height="50" relative="1" as="geometry">
            <mxPoint x="3" y="-116" as="sourcePoint" />
            <mxPoint x="3" y="-66" as="targetPoint" />
          </mxGeometry>
        </mxCell>
        <mxCell id="dUb_gdJ29Vl77e2lRFBZ-9" value="" style="endArrow=openThin;html=1;endFill=0;exitX=0.5;exitY=1;exitDx=0;exitDy=0;entryX=0.5;entryY=0;entryDx=0;entryDy=0;" edge="1" parent="1oKYoXXWQTvSqcj3fdGV-1" source="dUb_gdJ29Vl77e2lRFBZ-8" target="dUb_gdJ29Vl77e2lRFBZ-10">
          <mxGeometry width="50" height="50" relative="1" as="geometry">
            <mxPoint x="13" y="-106" as="sourcePoint" />
            <mxPoint x="13" y="-56" as="targetPoint" />
          </mxGeometry>
        </mxCell>
        <mxCell id="dUb_gdJ29Vl77e2lRFBZ-12" value="" style="endArrow=openThin;html=1;endFill=0;exitX=0.5;exitY=1;exitDx=0;exitDy=0;entryX=0.5;entryY=0;entryDx=0;entryDy=0;" edge="1" parent="1oKYoXXWQTvSqcj3fdGV-1" source="dUb_gdJ29Vl77e2lRFBZ-11" target="dUb_gdJ29Vl77e2lRFBZ-13">
          <mxGeometry width="50" height="50" relative="1" as="geometry">
            <mxPoint x="23" y="-96" as="sourcePoint" />
            <mxPoint x="23" y="-46" as="targetPoint" />
          </mxGeometry>
        </mxCell>
        <mxCell id="1oKYoXXWQTvSqcj3fdGV-2" value="Student" style="swimlane;startSize=20;horizontal=0;" parent="1oKYoXXWQTvSqcj3fdGV-1" vertex="1">
          <mxGeometry x="20" width="640" height="120" as="geometry" />
        </mxCell>
        <mxCell id="1oKYoXXWQTvSqcj3fdGV-5" value="" style="ellipse;html=1;shape=endState;fillColor=#000000;strokeColor=#000000;" parent="1oKYoXXWQTvSqcj3fdGV-2" vertex="1">
          <mxGeometry x="590" y="45" width="30" height="30" as="geometry" />
        </mxCell>
        <mxCell id="1oKYoXXWQTvSqcj3fdGV-7" value="MA1" style="rounded=1;whiteSpace=wrap;html=1;" parent="1oKYoXXWQTvSqcj3fdGV-2" vertex="1">
          <mxGeometry x="120" y="64" width="65" height="30" as="geometry" />
        </mxCell>
        <mxCell id="1oKYoXXWQTvSqcj3fdGV-6" value="" style="ellipse;html=1;shape=endState;fillColor=#000000;strokeColor=none;" parent="1oKYoXXWQTvSqcj3fdGV-2" vertex="1">
          <mxGeometry x="40" y="20" width="30" height="30" as="geometry" />
        </mxCell>
        <mxCell id="dUb_gdJ29Vl77e2lRFBZ-2" value="" style="endArrow=none;html=1;" edge="1" parent="1oKYoXXWQTvSqcj3fdGV-2">
          <mxGeometry width="50" height="50" relative="1" as="geometry">
            <mxPoint x="100" y="60" as="sourcePoint" />
            <mxPoint x="100" y="10" as="targetPoint" />
          </mxGeometry>
        </mxCell>
        <mxCell id="dUb_gdJ29Vl77e2lRFBZ-5" value="&lt;div&gt;MA2&lt;/div&gt;" style="rounded=1;whiteSpace=wrap;html=1;" vertex="1" parent="1oKYoXXWQTvSqcj3fdGV-2">
          <mxGeometry x="200" y="64" width="65" height="30" as="geometry" />
        </mxCell>
        <mxCell id="dUb_gdJ29Vl77e2lRFBZ-8" value="MA3" style="rounded=1;whiteSpace=wrap;html=1;" vertex="1" parent="1oKYoXXWQTvSqcj3fdGV-2">
          <mxGeometry x="280" y="64" width="65" height="30" as="geometry" />
        </mxCell>
        <mxCell id="dUb_gdJ29Vl77e2lRFBZ-11" value="MA4" style="rounded=1;whiteSpace=wrap;html=1;" vertex="1" parent="1oKYoXXWQTvSqcj3fdGV-2">
          <mxGeometry x="360" y="64" width="65" height="30" as="geometry" />
        </mxCell>
        <mxCell id="dUb_gdJ29Vl77e2lRFBZ-23" value="Exam" style="rounded=1;whiteSpace=wrap;html=1;" vertex="1" parent="1oKYoXXWQTvSqcj3fdGV-2">
          <mxGeometry x="490" y="45" width="65" height="30" as="geometry" />
        </mxCell>
        <mxCell id="dUb_gdJ29Vl77e2lRFBZ-25" value="" style="endArrow=classic;html=1;entryX=0;entryY=0.5;entryDx=0;entryDy=0;exitX=1;exitY=0.5;exitDx=0;exitDy=0;" edge="1" parent="1oKYoXXWQTvSqcj3fdGV-2" source="dUb_gdJ29Vl77e2lRFBZ-23" target="1oKYoXXWQTvSqcj3fdGV-5">
          <mxGeometry width="50" height="50" relative="1" as="geometry">
            <mxPoint x="430" y="160" as="sourcePoint" />
            <mxPoint x="480" y="110" as="targetPoint" />
          </mxGeometry>
        </mxCell>
        <mxCell id="1oKYoXXWQTvSqcj3fdGV-3" value="Teaching team" style="swimlane;startSize=20;horizontal=0;" parent="1oKYoXXWQTvSqcj3fdGV-1" vertex="1">
          <mxGeometry x="20" y="120" width="640" height="120" as="geometry" />
        </mxCell>
        <mxCell id="1oKYoXXWQTvSqcj3fdGV-12" value="Confirm MA1" style="rounded=1;whiteSpace=wrap;html=1;" parent="1oKYoXXWQTvSqcj3fdGV-3" vertex="1">
          <mxGeometry x="120" y="30" width="65" height="30" as="geometry" />
        </mxCell>
        <mxCell id="dUb_gdJ29Vl77e2lRFBZ-7" value="Confirm MA2" style="rounded=1;whiteSpace=wrap;html=1;" vertex="1" parent="1oKYoXXWQTvSqcj3fdGV-3">
          <mxGeometry x="200" y="30" width="65" height="30" as="geometry" />
        </mxCell>
        <mxCell id="dUb_gdJ29Vl77e2lRFBZ-10" value="Confirm MA3" style="rounded=1;whiteSpace=wrap;html=1;" vertex="1" parent="1oKYoXXWQTvSqcj3fdGV-3">
          <mxGeometry x="280" y="30" width="65" height="30" as="geometry" />
        </mxCell>
        <mxCell id="dUb_gdJ29Vl77e2lRFBZ-13" value="Confirm MA4" style="rounded=1;whiteSpace=wrap;html=1;" vertex="1" parent="1oKYoXXWQTvSqcj3fdGV-3">
          <mxGeometry x="360" y="30" width="65" height="30" as="geometry" />
        </mxCell>
        <mxCell id="dUb_gdJ29Vl77e2lRFBZ-18" value="" style="endArrow=none;html=1;" edge="1" parent="1oKYoXXWQTvSqcj3fdGV-3">
          <mxGeometry width="50" height="50" relative="1" as="geometry">
            <mxPoint x="450" y="110" as="sourcePoint" />
            <mxPoint x="450" y="60" as="targetPoint" />
          </mxGeometry>
        </mxCell>
        <mxCell id="1oKYoXXWQTvSqcj3fdGV-43" value="&lt;div&gt;[Participated in &lt;br&gt;&lt;/div&gt;&lt;div&gt;sufficient weekly&lt;/div&gt;&lt;div&gt;activities]&lt;/div&gt;" style="text;html=1;strokeColor=none;fillColor=none;align=center;verticalAlign=middle;whiteSpace=wrap;rounded=0;fontSize=8;" parent="1oKYoXXWQTvSqcj3fdGV-3" vertex="1">
          <mxGeometry x="150" y="-6" width="105" height="20" as="geometry" />
        </mxCell>
        <mxCell id="1oKYoXXWQTvSqcj3fdGV-38" value="[Participated in an exam simulation]" style="text;html=1;strokeColor=none;fillColor=none;align=center;verticalAlign=middle;whiteSpace=wrap;rounded=0;fontSize=8;" parent="1oKYoXXWQTvSqcj3fdGV-3" vertex="1">
          <mxGeometry x="95" y="-1" width="55" height="10" as="geometry" />
        </mxCell>
        <mxCell id="1oKYoXXWQTvSqcj3fdGV-44" value="[Participated in project reviews]" style="text;html=1;strokeColor=none;fillColor=none;align=center;verticalAlign=middle;whiteSpace=wrap;rounded=0;fontSize=8;" parent="1oKYoXXWQTvSqcj3fdGV-3" vertex="1">
          <mxGeometry x="248" y="-10" width="70" height="20" as="geometry" />
        </mxCell>
        <mxCell id="1oKYoXXWQTvSqcj3fdGV-46" value="[Participated in project demo]" style="text;html=1;strokeColor=none;fillColor=none;align=center;verticalAlign=middle;whiteSpace=wrap;rounded=0;fontSize=8;" parent="1oKYoXXWQTvSqcj3fdGV-3" vertex="1">
          <mxGeometry x="325" y="-10" width="80" height="20" as="geometry" />
        </mxCell>
        <mxCell id="dUb_gdJ29Vl77e2lRFBZ-27" value="[Approved]" style="text;html=1;strokeColor=none;fillColor=none;align=center;verticalAlign=middle;whiteSpace=wrap;rounded=0;fontSize=8;" vertex="1" parent="1oKYoXXWQTvSqcj3fdGV-3">
          <mxGeometry x="100" y="62" width="55" height="10" as="geometry" />
        </mxCell>
        <mxCell id="dUb_gdJ29Vl77e2lRFBZ-28" value="[Approved]" style="text;html=1;strokeColor=none;fillColor=none;align=center;verticalAlign=middle;whiteSpace=wrap;rounded=0;fontSize=8;" vertex="1" parent="1oKYoXXWQTvSqcj3fdGV-3">
          <mxGeometry x="183" y="62" width="55" height="10" as="geometry" />
        </mxCell>
        <mxCell id="dUb_gdJ29Vl77e2lRFBZ-29" value="[Approved]" style="text;html=1;strokeColor=none;fillColor=none;align=center;verticalAlign=middle;whiteSpace=wrap;rounded=0;fontSize=8;" vertex="1" parent="1oKYoXXWQTvSqcj3fdGV-3">
          <mxGeometry x="263" y="62" width="55" height="10" as="geometry" />
        </mxCell>
        <mxCell id="dUb_gdJ29Vl77e2lRFBZ-30" value="[Approved]" style="text;html=1;strokeColor=none;fillColor=none;align=center;verticalAlign=middle;whiteSpace=wrap;rounded=0;fontSize=8;" vertex="1" parent="1oKYoXXWQTvSqcj3fdGV-3">
          <mxGeometry x="344" y="62" width="55" height="10" as="geometry" />
        </mxCell>
        <mxCell id="dUb_gdJ29Vl77e2lRFBZ-4" value="" style="endArrow=openThin;html=1;endFill=0;" edge="1" parent="1">
          <mxGeometry width="50" height="50" relative="1" as="geometry">
            <mxPoint x="160" y="155" as="sourcePoint" />
            <mxPoint x="200" y="155" as="targetPoint" />
          </mxGeometry>
        </mxCell>
        <mxCell id="dUb_gdJ29Vl77e2lRFBZ-14" value="" style="endArrow=openThin;html=1;endFill=0;entryX=0.5;entryY=0;entryDx=0;entryDy=0;" edge="1" parent="1" target="1oKYoXXWQTvSqcj3fdGV-7">
          <mxGeometry width="50" height="50" relative="1" as="geometry">
            <mxPoint x="200" y="170" as="sourcePoint" />
            <mxPoint x="210" y="170" as="targetPoint" />
            <Array as="points">
              <mxPoint x="253" y="170" />
            </Array>
          </mxGeometry>
        </mxCell>
        <mxCell id="dUb_gdJ29Vl77e2lRFBZ-15" value="" style="endArrow=openThin;html=1;endFill=0;entryX=0.5;entryY=0;entryDx=0;entryDy=0;" edge="1" parent="1" target="dUb_gdJ29Vl77e2lRFBZ-5">
          <mxGeometry width="50" height="50" relative="1" as="geometry">
            <mxPoint x="200" y="160" as="sourcePoint" />
            <mxPoint x="262.5" y="194" as="targetPoint" />
            <Array as="points">
              <mxPoint x="330" y="160" />
            </Array>
          </mxGeometry>
        </mxCell>
        <mxCell id="dUb_gdJ29Vl77e2lRFBZ-16" value="" style="endArrow=openThin;html=1;endFill=0;entryX=0.5;entryY=0;entryDx=0;entryDy=0;" edge="1" parent="1" target="dUb_gdJ29Vl77e2lRFBZ-8">
          <mxGeometry width="50" height="50" relative="1" as="geometry">
            <mxPoint x="200" y="150" as="sourcePoint" />
            <mxPoint x="272.5" y="204" as="targetPoint" />
            <Array as="points">
              <mxPoint x="413" y="150" />
            </Array>
          </mxGeometry>
        </mxCell>
        <mxCell id="dUb_gdJ29Vl77e2lRFBZ-17" value="" style="endArrow=openThin;html=1;endFill=0;entryX=0.5;entryY=0;entryDx=0;entryDy=0;" edge="1" parent="1" target="dUb_gdJ29Vl77e2lRFBZ-11">
          <mxGeometry width="50" height="50" relative="1" as="geometry">
            <mxPoint x="200" y="140" as="sourcePoint" />
            <mxPoint x="262.5" y="194" as="targetPoint" />
            <Array as="points">
              <mxPoint x="493" y="140" />
            </Array>
          </mxGeometry>
        </mxCell>
        <mxCell id="dUb_gdJ29Vl77e2lRFBZ-19" value="" style="endArrow=classic;html=1;exitX=0.5;exitY=1;exitDx=0;exitDy=0;" edge="1" parent="1" source="dUb_gdJ29Vl77e2lRFBZ-13">
          <mxGeometry width="50" height="50" relative="1" as="geometry">
            <mxPoint x="380" y="310" as="sourcePoint" />
            <mxPoint x="550" y="310" as="targetPoint" />
            <Array as="points">
              <mxPoint x="493" y="310" />
            </Array>
          </mxGeometry>
        </mxCell>
        <mxCell id="dUb_gdJ29Vl77e2lRFBZ-20" value="" style="endArrow=classic;html=1;exitX=0.5;exitY=1;exitDx=0;exitDy=0;" edge="1" parent="1" source="dUb_gdJ29Vl77e2lRFBZ-10">
          <mxGeometry width="50" height="50" relative="1" as="geometry">
            <mxPoint x="380" y="310" as="sourcePoint" />
            <mxPoint x="550" y="320" as="targetPoint" />
            <Array as="points">
              <mxPoint x="413" y="320" />
            </Array>
          </mxGeometry>
        </mxCell>
        <mxCell id="dUb_gdJ29Vl77e2lRFBZ-21" value="" style="endArrow=classic;html=1;exitX=0.5;exitY=1;exitDx=0;exitDy=0;" edge="1" parent="1" source="dUb_gdJ29Vl77e2lRFBZ-7">
          <mxGeometry width="50" height="50" relative="1" as="geometry">
            <mxPoint x="380" y="310" as="sourcePoint" />
            <mxPoint x="550" y="330" as="targetPoint" />
            <Array as="points">
              <mxPoint x="333" y="330" />
            </Array>
          </mxGeometry>
        </mxCell>
        <mxCell id="dUb_gdJ29Vl77e2lRFBZ-22" value="" style="endArrow=classic;html=1;exitX=0.5;exitY=1;exitDx=0;exitDy=0;" edge="1" parent="1" source="1oKYoXXWQTvSqcj3fdGV-12">
          <mxGeometry width="50" height="50" relative="1" as="geometry">
            <mxPoint x="380" y="310" as="sourcePoint" />
            <mxPoint x="550" y="340" as="targetPoint" />
            <Array as="points">
              <mxPoint x="253" y="340" />
            </Array>
          </mxGeometry>
        </mxCell>
        <mxCell id="dUb_gdJ29Vl77e2lRFBZ-24" value="" style="endArrow=classic;html=1;entryX=0;entryY=0.5;entryDx=0;entryDy=0;" edge="1" parent="1" target="dUb_gdJ29Vl77e2lRFBZ-23">
          <mxGeometry width="50" height="50" relative="1" as="geometry">
            <mxPoint x="550" y="326" as="sourcePoint" />
            <mxPoint x="590" y="176" as="targetPoint" />
            <Array as="points">
              <mxPoint x="570" y="326" />
              <mxPoint x="570" y="180" />
            </Array>
          </mxGeometry>
        </mxCell>
      </root>
    </mxGraphModel>
  </diagram>
</mxfile>
